<?xml version="1.0" standalone="no"?>
<!DOCTYPE svg PUBLIC "-//W3C//DTD SVG 20010904//EN"
 "http://www.w3.org/TR/2001/REC-SVG-20010904/DTD/svg10.dtd">
<svg version="1.0" xmlns="http://www.w3.org/2000/svg"
 width="886.000000pt" height="886.000000pt" viewBox="0 0 886.000000 886.000000"
 preserveAspectRatio="xMidYMid meet">

<g transform="translate(0.000000,886.000000) scale(0.100000,-0.100000)"
fill="#000000" stroke="none">
<path d="M3275 8226 c-3 -9 -7 -23 -10 -32 -4 -11 -1 -14 10 -10 8 3 14 1 12
-4 -1 -5 7 -15 17 -23 21 -16 14 -37 -13 -37 -9 0 -41 11 -69 25 -29 14 -62
25 -74 25 -24 0 -63 -20 -40 -20 6 0 12 -6 12 -14 0 -9 -16 -17 -42 -21 l-43
-8 53 -25 c29 -15 51 -30 49 -35 -1 -5 -24 -11 -50 -13 -36 -3 -47 0 -47 11 0
8 -2 15 -5 15 -11 0 -42 -38 -47 -58 -7 -27 26 -72 53 -72 10 0 19 -6 20 -12
4 -42 -7 -65 -47 -101 -35 -31 -94 -121 -94 -142 0 -2 10 -5 22 -7 17 -2 24
-14 35 -63 7 -33 16 -80 19 -105 3 -25 14 -70 24 -100 30 -93 49 -163 56 -210
6 -41 43 -158 75 -238 13 -31 12 -34 -15 -56 -17 -13 -26 -28 -22 -34 4 -7 2
-12 -4 -12 -29 0 -53 -151 -38 -245 13 -86 46 -152 83 -167 16 -6 32 -14 35
-17 3 -3 14 -11 25 -18 11 -6 19 -16 17 -22 -3 -13 37 -14 58 -1 33 20 -1 222
-60 355 -38 86 -40 103 -47 333 l-5 182 31 63 c16 34 35 93 41 132 11 67 21
85 48 85 9 0 11 7 7 19 -9 31 21 33 41 3 9 -15 23 -31 31 -35 11 -7 10 -14 -3
-45 -9 -20 -17 -41 -18 -47 -2 -5 -10 -27 -19 -47 -9 -20 -14 -44 -11 -52 3
-9 -3 -30 -14 -48 -29 -48 -36 -92 -19 -124 l14 -28 8 24 c12 38 45 61 80 54
45 -9 46 -9 -15 -59 -18 -15 -22 -16 -18 -4 4 9 1 16 -8 16 -8 0 -14 -10 -14
-24 0 -13 -7 -26 -15 -30 -36 -13 -63 -131 -34 -149 6 -3 17 -21 25 -39 13
-32 15 -32 69 -30 30 2 55 -1 55 -5 0 -4 9 -6 20 -3 11 3 28 2 37 -2 10 -5 24
-7 31 -6 6 1 12 -2 12 -8 0 -5 -6 -12 -12 -14 -7 -3 -3 -6 10 -6 12 -1 25 -8
28 -16 4 -8 12 -15 19 -15 19 0 25 -62 8 -82 -8 -9 -12 -22 -8 -28 6 -9 9 -9
15 0 5 8 10 9 14 2 4 -6 -3 -16 -14 -22 -11 -6 -20 -19 -20 -30 0 -10 -4 -22
-10 -25 -5 -3 -10 -17 -10 -30 0 -13 -10 -31 -21 -39 -28 -19 -35 -121 -14
-174 41 -97 21 -244 -31 -234 -13 2 -29 10 -35 18 -14 17 -39 18 -39 2 0 -6
-8 -4 -19 6 -41 37 -51 -19 -15 -84 8 -14 18 -36 24 -50 5 -14 14 -32 18 -40
26 -46 36 -68 43 -98 7 -30 3 -37 -52 -94 -32 -33 -59 -66 -59 -72 0 -6 -17
-32 -37 -57 -21 -25 -54 -75 -73 -112 -32 -62 -34 -69 -23 -109 12 -41 11 -44
-15 -63 -15 -11 -47 -38 -72 -61 -25 -23 -65 -51 -89 -63 -52 -25 -52 -25 -49
-9 5 21 -31 20 -75 -1 -23 -11 -75 -28 -114 -37 -56 -13 -73 -21 -73 -35 0
-19 -116 -129 -135 -129 -7 0 -17 -11 -23 -24 -7 -15 -34 -36 -69 -52 -31 -15
-52 -29 -45 -32 7 -2 -3 -16 -24 -33 -20 -16 -40 -26 -45 -23 -5 3 -12 -2 -15
-10 -9 -24 -55 -20 -61 4 -6 24 -2 24 -93 0 -92 -26 -128 -42 -163 -74 -26
-24 -65 -31 -150 -26 -9 1 -30 -13 -45 -31 -15 -18 -34 -40 -42 -48 -32 -32
-68 -88 -97 -151 -42 -89 -103 -235 -103 -247 0 -6 -16 -40 -35 -77 -19 -37
-35 -81 -35 -97 0 -16 -8 -55 -18 -87 -11 -31 -24 -88 -31 -127 -7 -38 -19
-88 -27 -110 -8 -22 -18 -67 -23 -100 -5 -33 -16 -78 -25 -100 -8 -22 -15 -56
-16 -75 0 -52 -45 -321 -85 -510 -19 -91 -39 -203 -45 -250 -5 -47 -19 -123
-30 -170 -28 -120 -27 -124 23 -145 23 -10 61 -27 84 -37 23 -10 47 -18 53
-18 6 0 24 -7 40 -15 25 -13 29 -21 34 -77 11 -118 19 -333 17 -433 -1 -55 2
-121 8 -147 6 -26 16 -98 21 -160 6 -62 13 -129 15 -148 2 -19 7 -91 10 -160
9 -173 10 -181 34 -230 11 -24 21 -50 21 -57 0 -30 31 -73 53 -73 22 -1 22 -1
2 -16 -20 -15 -20 -15 0 -30 11 -8 20 -28 21 -44 2 -45 14 -81 24 -75 5 3 9
-3 9 -12 -1 -37 20 -96 40 -114 12 -11 21 -31 21 -44 0 -13 5 -27 10 -30 6 -3
10 -19 10 -35 0 -16 4 -32 10 -35 5 -3 10 -15 10 -26 0 -10 7 -19 15 -19 11 0
15 -11 15 -35 0 -22 6 -38 15 -41 8 -4 15 -15 15 -26 0 -11 11 -33 25 -50 14
-16 25 -41 25 -54 0 -13 4 -32 9 -42 5 -9 17 -43 26 -75 12 -36 21 -53 26 -45
9 13 15 3 21 -37 3 -20 12 -20 1971 -23 l1967 -2 0 48 c0 26 -7 74 -15 107 -9
32 -22 97 -29 144 -8 52 -28 117 -49 165 -33 73 -35 83 -30 155 3 42 9 80 14
85 14 15 11 38 -8 58 -18 20 -31 135 -37 343 -3 74 -11 133 -25 180 -28 93
-26 168 5 295 25 100 28 132 25 310 -2 132 12 184 74 277 47 71 55 89 55 130
0 27 -4 64 -10 83 -5 19 -11 62 -14 95 -2 33 -13 92 -24 130 -23 80 -34 186
-21 206 13 20 30 -9 22 -38 -3 -16 -1 -23 10 -23 24 0 45 -42 61 -126 14 -77
38 -177 88 -374 16 -61 24 -116 22 -155 -1 -33 3 -78 9 -100 6 -22 12 -53 13
-70 3 -46 24 -266 28 -300 3 -16 14 -88 25 -160 11 -71 28 -199 36 -283 9 -85
20 -165 26 -179 5 -13 9 -43 9 -65 0 -37 13 -87 46 -178 6 -19 22 -75 34 -125
24 -101 26 -108 80 -295 31 -110 80 -313 80 -335 0 -3 80 -5 179 -5 205 0 192
-7 184 98 -3 39 1 80 12 117 14 51 14 59 1 74 -10 11 -12 21 -5 33 5 9 9 27 9
40 5 175 4 190 -11 202 -12 9 -13 15 -4 33 8 15 9 40 5 70 -5 27 -6 52 -3 56
2 4 6 32 8 62 2 43 -1 55 -12 55 -8 0 -11 5 -8 10 4 6 9 8 13 6 11 -7 5 150
-7 173 -9 17 -8 24 10 42 14 14 19 28 15 42 -3 12 -6 25 -6 30 0 4 -9 7 -20 7
-16 0 -20 7 -20 34 0 18 -6 39 -14 45 -7 6 -16 41 -20 79 -10 105 -11 111 -32
127 -16 12 -16 14 -3 15 24 0 33 56 14 83 -19 27 -19 51 0 67 8 7 14 24 14 39
-1 17 -3 20 -6 9 -5 -20 -33 -25 -33 -6 0 6 6 19 13 27 14 17 32 74 41 129 4
25 1 35 -14 44 -11 7 -20 19 -20 26 0 7 -7 24 -16 37 -9 13 -13 29 -9 35 3 5
1 10 -5 10 -8 0 -7 6 1 21 8 16 8 23 -1 29 -6 4 -14 35 -17 68 -3 34 -10 59
-15 56 -5 -3 -6 -14 -3 -25 4 -11 2 -19 -4 -19 -6 0 -12 9 -12 20 -1 11 -2 24
-3 30 -1 9 -17 28 -54 63 -11 10 -17 26 -15 40 2 12 -3 31 -11 42 -8 11 -16
15 -16 8 0 -21 -37 -35 -60 -23 -15 8 -20 8 -20 -1 0 -8 -4 -8 -15 1 -9 7 -14
19 -11 27 3 7 -1 13 -9 13 -8 0 -15 -7 -15 -15 0 -20 -23 -19 -51 3 -17 14
-20 24 -14 38 9 20 12 30 14 52 2 27 21 10 22 -20 0 -32 1 -32 10 -9 12 30 5
51 -16 51 -18 0 -21 30 -2 31 6 0 2 4 -9 9 -16 6 -20 15 -17 34 6 31 33 44 33
16 0 -11 7 -20 15 -20 8 0 24 -9 35 -20 26 -26 30 -25 30 5 0 14 -6 25 -12 25
-19 0 -98 77 -98 95 0 9 -9 15 -25 15 -30 0 -33 16 -5 23 11 3 20 10 20 17 0
7 -9 14 -20 17 -11 3 -20 12 -20 20 0 8 4 12 10 8 14 -9 61 6 54 17 -4 5 -19
8 -35 6 -20 -3 -29 0 -29 9 0 7 -7 13 -15 13 -8 0 -19 9 -25 20 -7 12 -7 20
-1 20 5 0 12 9 16 20 3 11 9 19 13 19 28 -4 52 3 52 16 0 9 6 12 15 9 8 -3 22
1 30 10 12 12 21 13 35 6 26 -14 30 -13 30 10 0 12 7 20 16 20 19 0 62 32 106
77 17 18 37 33 44 33 6 0 14 7 18 15 3 8 10 15 16 15 6 0 16 5 23 10 14 12 78
59 193 140 114 81 117 84 109 133 -6 44 -10 56 -40 122 -10 22 -17 51 -16 64
2 13 -2 27 -8 31 -16 9 -54 108 -56 145 -2 30 -33 99 -65 145 -10 14 -21 41
-25 60 -4 19 -21 46 -37 60 -26 23 -30 34 -32 85 -1 48 -12 80 -49 160 -70
148 -72 150 -87 150 -12 0 -14 -13 -12 -66 2 -41 -1 -69 -7 -74 -6 -3 -11 2
-11 12 0 11 -10 33 -23 51 -13 17 -29 50 -36 74 -7 24 -17 51 -22 60 -5 9 -11
36 -15 60 -3 24 -15 63 -27 87 -20 43 -21 43 -29 20 -5 -13 -8 -37 -7 -54 1
-16 -7 -48 -17 -70 l-18 -40 -7 65 c-9 99 -28 148 -75 196 -37 37 -43 50 -50
101 -5 41 -15 68 -35 94 -16 20 -29 41 -29 47 0 5 -7 15 -15 22 -13 11 -15 8
-16 -21 -1 -20 -3 -26 -6 -14 -11 53 -26 76 -46 73 -28 -4 -34 -28 -8 -28 12
0 21 -4 21 -10 0 -18 -29 -11 -50 12 -28 30 -34 18 -14 -31 10 -26 14 -53 10
-75 -6 -29 -2 -38 24 -64 27 -27 29 -33 19 -61 -11 -31 -32 -41 -44 -21 -3 6
3 10 14 10 20 0 20 1 3 21 -9 11 -27 25 -40 30 -13 5 -22 15 -20 21 4 21 -31
98 -48 105 -9 3 -25 1 -36 -6 -14 -8 -24 -9 -39 0 -18 9 -26 6 -50 -17 -16
-15 -29 -38 -29 -50 0 -12 -6 -26 -12 -32 -17 -14 -82 9 -115 40 -28 26 -113
142 -113 155 -1 11 -29 67 -69 136 -36 63 -90 112 -105 97 -17 -17 -34 -11
-40 13 -3 12 -17 35 -32 50 -20 22 -23 31 -14 42 16 19 6 31 -38 45 -20 7 -65
25 -98 41 -80 38 -98 38 -90 2 9 -38 39 -103 49 -103 4 0 7 -7 7 -15 0 -9 -10
-15 -26 -15 -32 0 -24 -14 29 -47 54 -33 57 -38 57 -95 0 -28 13 -81 31 -130
17 -46 35 -117 39 -159 8 -73 32 -161 49 -184 22 -28 61 -108 61 -126 0 -45
73 -129 112 -129 9 0 29 -5 45 -11 26 -10 27 -11 9 -21 -11 -6 -42 -8 -79 -3
-63 7 -98 30 -112 74 -3 10 -13 22 -21 25 -10 4 -13 13 -9 25 4 13 -2 25 -21
40 -37 29 -50 57 -57 125 -4 44 -3 56 6 47 6 -6 14 -11 18 -11 11 0 -2 49 -17
61 -8 6 -14 16 -14 21 0 30 -37 81 -71 99 l-39 19 0 -28 c0 -15 -4 -32 -9 -37
-8 -9 10 -130 34 -227 8 -30 0 -84 -15 -108 -8 -12 -13 -11 -33 8 -14 13 -33
25 -43 26 -15 2 -18 15 -21 97 -4 79 -2 95 13 106 16 11 16 13 1 19 -20 7 -23
40 -4 47 8 3 6 9 -8 20 -11 8 -20 23 -20 33 0 62 -64 -27 -90 -126 -13 -50
-14 -50 -93 -22 -69 25 -89 44 -68 61 13 11 17 9 27 -13 10 -20 15 -23 30 -15
11 5 19 16 19 24 0 11 9 14 31 13 19 -2 34 2 36 10 3 6 -1 12 -9 12 -7 1 -26
11 -41 24 -26 21 -28 25 -15 45 11 18 11 25 -2 49 -20 35 -44 35 -48 0 -2 -16
-9 -28 -16 -28 -28 0 -35 -24 -16 -50 22 -28 25 -40 10 -40 -16 0 -70 52 -70
67 0 7 -4 13 -10 13 -5 0 -10 8 -10 18 0 10 -7 27 -15 39 -11 16 -12 24 -4 29
13 8 -42 34 -72 34 -11 0 -19 4 -19 8 0 15 22 30 36 25 8 -3 14 1 14 10 0 8
-18 22 -41 31 -40 16 -45 36 -8 36 23 0 24 8 3 32 -15 16 -15 18 -1 24 22 8
50 -10 86 -55 27 -34 29 -40 16 -51 -8 -7 -16 -10 -16 -6 -1 3 -3 11 -4 16 -1
6 -3 17 -4 26 -2 23 -21 6 -21 -19 0 -17 13 -28 53 -47 67 -32 108 -35 137
-12 19 15 21 22 12 39 -9 16 -8 24 3 33 23 19 18 36 -16 65 -31 26 -31 26 -9
32 19 5 21 11 16 37 -4 17 -11 33 -17 35 -16 5 -69 59 -67 68 3 17 -15 43 -29
43 -13 0 -13 -3 0 -24 l16 -24 -32 11 c-18 5 -38 11 -44 13 -19 5 -16 15 26
85 39 65 61 126 41 114 -5 -3 -17 -18 -24 -33 -8 -15 -46 -54 -85 -87 -39 -33
-71 -65 -71 -70 0 -14 -59 -44 -95 -48 -18 -2 -34 2 -41 11 -9 12 -14 12 -32
1 -12 -8 -22 -22 -22 -31 0 -18 -15 -25 -22 -10 -6 14 -68 43 -79 37 -6 -4
-16 1 -23 11 -9 11 -20 15 -36 11 -13 -3 -32 -1 -44 5 -20 11 -20 11 3 19 16
7 21 14 16 28 -3 11 -3 31 1 45 5 21 9 24 19 16 11 -9 12 -7 8 8 -2 11 0 23 6
26 6 4 11 2 11 -3 0 -6 9 -11 20 -11 11 0 20 7 20 16 0 8 -4 12 -10 9 -6 -4
-10 7 -10 25 0 23 4 31 14 27 9 -4 25 17 50 66 20 40 36 77 36 82 0 19 63 77
123 114 20 12 34 27 31 33 -4 6 0 16 8 22 19 14 38 50 38 71 0 9 10 30 21 47
15 21 18 33 11 40 -8 8 -8 17 -1 30 19 35 4 51 -41 43 -47 -8 -69 1 -44 19 16
12 15 14 -9 20 -17 4 -29 15 -33 31 -3 14 -11 25 -16 25 -5 0 -8 18 -7 40 3
30 -2 43 -16 54 -17 12 -17 16 -6 30 9 11 17 13 21 6 3 -5 14 24 24 66 20 83
16 155 -9 205 -8 15 -12 36 -8 45 4 11 3 15 -4 11 -7 -5 -9 0 -6 12 3 11 -2
21 -11 24 -9 4 -16 13 -16 22 0 14 -25 61 -40 75 -3 3 -22 27 -44 53 -21 26
-41 46 -43 43 -11 -11 -11 -86 -1 -80 7 5 9 0 6 -14 -4 -13 1 -31 13 -46 27
-35 24 -46 -14 -46 -44 0 -69 27 -61 66 5 26 2 31 -35 47 -56 24 -61 22 -109
-23 -22 -22 -50 -40 -60 -40 -10 0 -33 16 -52 35 -19 19 -40 35 -47 35 -7 0
-32 -13 -54 -30 -41 -29 -66 -29 -84 1 -12 18 16 69 37 69 26 0 78 50 78 75 0
11 7 29 16 40 11 15 13 33 8 71 -7 58 1 94 21 94 7 0 15 10 19 23 8 32 7 39
-4 32 -7 -4 -9 2 -4 19 5 22 -5 34 -19 24 -11 -8 -37 28 -37 51 1 22 2 24 11
9 14 -25 27 -22 27 6 0 15 -6 23 -17 22 -10 -1 -14 5 -12 14 2 8 3 23 3 33 -1
18 32 24 43 7 3 -5 1 -10 -5 -10 -7 0 -5 -6 4 -15 8 -8 28 -15 44 -15 26 0 30
-4 36 -37 3 -21 6 -56 6 -79 0 -25 7 -47 18 -58 38 -37 67 -57 91 -62 14 -3
51 -12 82 -20 63 -16 129 -19 129 -4 0 5 7 7 16 3 10 -4 17 1 21 15 3 11 18
25 34 31 30 10 38 26 18 33 -24 8 24 40 53 36 70 -11 30 52 -54 84 -63 24
-130 81 -121 104 3 7 21 16 41 20 95 17 88 42 -22 75 -52 16 -104 23 -195 25
l-125 3 -34 -40 c-40 -46 -65 -49 -103 -13 -17 16 -40 27 -58 28 -17 1 -31 6
-31 12 0 6 -11 16 -25 22 -19 9 -30 8 -52 -3 -30 -16 -53 -19 -53 -9 0 15 56
94 66 94 6 0 22 8 35 19 13 10 29 16 35 14 11 -4 27 31 25 53 -1 6 17 16 39
23 22 6 40 16 40 21 0 6 7 10 15 10 8 0 15 -4 15 -10 0 -5 5 -10 10 -10 6 0
10 7 10 15 0 8 7 15 15 15 8 0 19 9 25 20 6 11 24 27 40 35 16 8 41 32 55 53
14 20 27 35 28 32 5 -7 67 49 95 84 13 17 20 37 17 47 -3 9 -1 20 5 24 5 3 10
2 10 -3 0 -5 25 -7 55 -4 30 2 61 0 67 -5 7 -5 36 -8 63 -7 88 3 109 25 56 57
-33 19 -89 24 -138 12 -23 -5 -33 -4 -33 4 0 6 15 11 33 11 30 1 31 1 13 15
-11 8 -30 15 -43 15 -13 0 -23 6 -23 14 0 8 -10 18 -22 22 -13 4 -27 12 -31
18 -6 8 -10 8 -13 0 -12 -28 -32 -44 -61 -50 -21 -4 -33 -2 -33 4 0 6 10 12
22 14 26 3 38 38 14 38 -33 0 -66 -23 -60 -42 7 -23 -28 -25 -46 -3 -7 8 -18
15 -25 15 -7 0 -24 10 -39 21 -20 15 -24 25 -17 32 21 21 12 37 -21 35 -18 -1
-42 3 -53 7 -18 8 -18 7 3 -19 25 -32 20 -51 -12 -41 -11 4 -40 10 -63 14 -35
6 -41 5 -32 -5 14 -17 3 -34 -22 -34 -16 0 -19 -5 -14 -20 4 -11 2 -20 -4 -20
-17 0 -81 33 -81 42 0 4 -11 8 -25 8 -14 0 -28 7 -31 15 -9 23 -61 19 -74 -5
-11 -20 -54 -28 -64 -12 -3 5 -28 7 -56 6 -45 -2 -52 1 -70 26 -11 15 -17 30
-13 34 3 3 -1 6 -10 6 -10 0 -14 6 -11 14 3 8 1 17 -5 21 -6 3 -13 -1 -16 -9z
m-70 -97 c4 -6 5 -13 1 -16 -8 -8 -56 6 -56 17 0 13 47 13 55 -1z m135 -55 c0
-27 -27 -39 -49 -21 -9 8 -24 17 -34 20 -31 11 -10 24 38 24 40 0 45 -3 45
-23z m880 6 c-10 -18 -7 -24 13 -21 4 0 7 -6 7 -14 0 -8 -4 -15 -9 -15 -5 0
-15 -2 -23 -5 -7 -3 -19 4 -26 16 -11 18 -11 24 4 40 24 27 48 26 34 -1z
m-157 -36 c31 -5 36 -9 25 -21 -18 -23 -118 1 -118 28 0 6 12 8 28 5 15 -3 44
-8 65 -12z m-46 -60 c-3 -3 -12 -4 -19 -1 -8 3 -5 6 6 6 11 1 17 -2 13 -5z
m-287 -549 c0 -8 -7 -15 -15 -15 -8 0 -15 7 -15 15 0 8 7 15 15 15 8 0 15 -7
15 -15z m-560 -601 c0 -18 -8 -18 -26 0 -19 20 -18 25 6 19 11 -3 20 -12 20
-19z m1032 -218 c13 -19 8 -27 -14 -24 -15 2 -24 11 -26 25 -3 18 0 22 15 16
10 -4 21 -11 25 -17z m56 -84 c6 -18 -15 -14 -22 4 -4 10 -1 14 6 12 6 -2 14
-10 16 -16z m-91 -63 c58 0 63 -2 69 -24 12 -50 3 -60 -66 -67 -36 -4 -92 -11
-125 -17 -81 -13 -172 -13 -180 -1 -4 6 -12 10 -18 9 -31 -4 -38 2 -35 28 3
24 9 29 63 41 33 8 79 15 102 17 22 2 49 8 60 14 10 6 29 8 43 5 14 -3 53 -6
87 -5z m111 -167 c4 -26 30 -41 41 -23 4 6 15 9 24 5 14 -5 16 -14 10 -47 -3
-22 -12 -52 -20 -66 -7 -14 -13 -32 -13 -38 0 -31 -78 9 -98 51 -8 15 -25 31
-38 36 -24 9 -33 30 -14 30 6 0 10 5 10 10 0 6 -7 10 -16 10 -10 0 -14 6 -11
14 3 8 -1 17 -9 20 -35 13 1 26 64 24 61 -3 67 -5 70 -26z m26 -230 c5 -17 15
-32 23 -34 10 -2 0 -13 -26 -30 -22 -15 -43 -23 -46 -19 -6 10 3 99 11 112 10
17 28 3 38 -29z m-1319 -831 c9 -16 -26 -43 -49 -37 -12 3 -27 6 -35 6 -24 0
8 28 37 33 15 2 30 5 34 6 4 0 9 -3 13 -8z m1654 -35 c15 -30 32 -48 55 -57
27 -12 32 -18 27 -37 -6 -23 -7 -23 -57 18 -49 40 -74 86 -58 111 8 14 11 12
33 -35z m731 -137 c0 -9 7 -36 16 -60 67 -183 140 -401 165 -489 39 -140 68
-213 105 -265 25 -35 54 -94 54 -109 0 -5 -20 10 -45 34 -25 24 -45 53 -45 63
0 11 -11 32 -25 48 -13 16 -27 46 -30 67 -10 58 -35 143 -56 189 -10 23 -19
53 -19 66 0 27 -47 169 -82 247 -35 76 -38 85 -59 169 -10 41 -15 79 -12 84 8
13 33 -21 33 -44z m-910 -63 c0 -14 -29 -31 -38 -22 -2 3 -2 12 1 21 8 19 37
20 37 1z m-32 -48 c-3 -7 -12 -14 -21 -16 -12 -2 -15 1 -11 12 7 19 38 22 32
4z m-38 -67 c0 -10 -61 -34 -68 -26 -3 2 1 11 8 20 13 16 60 21 60 6z m-2103
-40 c15 -24 1 -31 -43 -24 -55 9 -60 13 -34 28 36 19 63 18 77 -4z m3828 -11
c3 -5 4 -14 0 -20 -7 -11 -55 8 -55 22 0 11 48 10 55 -2z m-1495 -40 c0 -5 -2
-10 -4 -10 -3 0 -8 5 -11 10 -3 6 -1 10 4 10 6 0 11 -4 11 -10z m58 -37 c6
-19 -25 -16 -32 3 -4 11 -1 14 11 12 9 -2 18 -9 21 -15z m42 -28 c0 -9 -6 -12
-15 -9 -8 4 -15 10 -15 15 0 5 7 9 15 9 8 0 15 -7 15 -15z m1438 -135 c5 -30
-13 -18 -34 23 l-17 31 24 -16 c13 -8 26 -25 27 -38z m-4194 -42 c-4 -35 -10
-67 -14 -72 -10 -10 -19 22 -16 54 2 14 4 37 5 53 1 17 7 27 16 27 12 0 14
-11 9 -62z m3908 8 c4 -40 0 -58 -13 -50 -12 7 -12 84 0 84 5 0 11 -15 13 -34z
m-822 -127 c0 -6 -4 -7 -10 -4 -5 3 -10 11 -10 16 0 6 5 7 10 4 6 -3 10 -11
10 -16z m70 -28 c0 -14 -5 -18 -20 -14 -23 6 -26 19 -7 26 22 9 27 7 27 -12z
m1320 -61 c0 -4 -6 -10 -14 -13 -12 -5 -14 2 -7 31 2 7 21 -10 21 -18z m-1304
-29 c-5 -8 -11 -7 -20 2 -10 9 -11 14 -2 19 14 9 30 -7 22 -21z m-35 -41 c17
-10 28 -40 14 -40 -15 0 -54 33 -49 41 7 11 11 11 35 -1z m39 -74 c0 -9 -9
-14 -20 -13 -11 1 -20 7 -20 14 0 7 9 13 20 13 11 0 20 -6 20 -14z m-422 -46
c17 -36 12 -74 -9 -78 -23 -4 -42 40 -34 77 8 39 26 40 43 1z m1861 -246 c1
-81 -18 -159 -33 -135 -9 13 3 250 13 266 9 16 19 -44 20 -131z m-4083 -1561
c3 -16 10 -38 15 -51 13 -32 11 -59 -3 -65 -8 -4 -4 -8 9 -12 37 -12 39 -40
13 -244 -6 -51 -10 -101 -7 -111 2 -10 -2 -71 -9 -136 -8 -66 -18 -187 -23
-270 -4 -83 -12 -157 -16 -165 -5 -7 -11 -56 -15 -109 l-6 -95 -18 40 c-25 56
-49 134 -98 320 -8 33 -13 106 -12 210 1 155 5 183 39 310 38 141 45 176 66
315 12 84 15 90 38 90 14 0 22 -9 27 -27z m4311 -1255 c-3 -8 -6 -5 -6 6 -1
11 2 17 5 13 3 -3 4 -12 1 -19z"/>
<path d="M2403 1788 c2 -7 12 -13 22 -13 10 0 20 6 23 13 2 7 -6 12 -23 12
-17 0 -25 -5 -22 -12z"/>
<path d="M2412 1718 c5 -15 37 -18 41 -3 1 6 -9 12 -22 13 -16 3 -22 -1 -19
-10z"/>
<path d="M4298 8133 c7 -3 16 -2 19 1 4 3 -2 6 -13 5 -11 0 -14 -3 -6 -6z"/>
<path d="M3000 8105 c0 -9 5 -15 11 -13 6 2 11 8 11 13 0 5 -5 11 -11 13 -6 2
-11 -4 -11 -13z"/>
<path d="M3921 7614 c0 -11 3 -14 6 -6 3 7 2 16 -1 19 -3 4 -6 -2 -5 -13z"/>
<path d="M4736 6772 c-3 -6 -1 -14 5 -17 15 -10 25 3 12 16 -7 7 -13 7 -17 1z"/>
<path d="M4761 5434 c0 -11 3 -14 6 -6 3 7 2 16 -1 19 -3 4 -6 -2 -5 -13z"/>
<path d="M4980 5370 c0 -5 7 -10 16 -10 8 0 12 5 9 10 -3 6 -10 10 -16 10 -5
0 -9 -4 -9 -10z"/>
<path d="M780 5228 c0 -7 7 -22 15 -32 11 -15 18 -17 26 -9 8 8 5 17 -10 32
-24 24 -31 26 -31 9z"/>
<path d="M355 5220 c-3 -5 3 -10 15 -10 12 0 18 5 15 10 -3 6 -10 10 -15 10
-5 0 -12 -4 -15 -10z"/>
<path d="M143 5194 c-15 -16 -18 -24 -9 -24 8 0 24 -11 37 -25 35 -36 66 -33
71 8 6 57 0 67 -40 66 -25 -1 -44 -9 -59 -25z"/>
<path d="M2582 5148 c6 -18 25 -20 31 -3 5 10 0 15 -14 15 -12 0 -19 -5 -17
-12z"/>
<path d="M4997 5153 c-10 -17 -30 -231 -24 -256 7 -26 38 -44 58 -31 6 3 9 22
7 40 -3 29 -1 34 17 34 12 0 26 -5 32 -11 7 -7 19 -9 28 -6 22 9 10 50 -32
111 -18 26 -33 56 -33 65 0 33 -41 74 -53 54z"/>
<path d="M5690 5102 c0 -14 47 -35 65 -28 9 3 15 12 13 19 -5 14 -78 23 -78 9z"/>
<path d="M2133 5093 c-7 -2 -13 -11 -13 -20 0 -11 -10 -14 -42 -11 -38 3 -43
0 -46 -19 -3 -21 0 -23 46 -23 47 0 81 18 65 33 -3 4 -1 7 5 7 7 0 12 9 12 20
0 20 -5 23 -27 13z"/>
<path d="M5795 5069 c-12 -19 5 -23 22 -6 16 16 16 17 1 17 -9 0 -20 -5 -23
-11z"/>
<path d="M5785 5019 c-27 -10 -46 -18 -41 -18 5 -1 2 -8 -5 -17 -11 -14 -10
-18 6 -30 10 -8 22 -14 26 -14 4 0 9 -10 11 -22 2 -16 11 -24 30 -26 22 -3 27
2 33 27 5 24 12 31 30 31 12 0 28 7 35 15 10 12 8 18 -11 35 l-24 19 23 1 c12
0 22 4 22 9 0 15 -80 8 -135 -10z"/>
<path d="M4635 4950 c-3 -5 1 -10 10 -10 9 0 13 5 10 10 -3 6 -8 10 -10 10 -2
0 -7 -4 -10 -10z"/>
<path d="M0 4830 c0 -23 5 -30 19 -30 29 0 33 14 10 38 -26 29 -29 28 -29 -8z"/>
<path d="M5020 4820 c0 -11 5 -20 10 -20 6 0 10 9 10 20 0 11 -4 20 -10 20 -5
0 -10 -9 -10 -20z"/>
<path d="M160 4820 c0 -5 4 -10 9 -10 6 0 13 5 16 10 3 6 -1 10 -9 10 -9 0
-16 -4 -16 -10z"/>
<path d="M88 4813 c7 -3 16 -2 19 1 4 3 -2 6 -13 5 -11 0 -14 -3 -6 -6z"/>
<path d="M232 4785 c-13 -7 -32 -22 -44 -35 -17 -19 -28 -21 -65 -17 -37 4
-49 1 -71 -19 l-27 -24 27 -24 c15 -13 45 -27 67 -31 24 -4 41 -12 41 -20 0
-7 14 -16 31 -20 27 -6 35 -2 80 45 50 52 56 64 39 75 -5 3 -10 17 -10 30 0
54 -21 66 -68 40z"/>
<path d="M1209 4648 c-1 -13 -1 -28 0 -33 0 -6 -22 -33 -49 -59 -39 -38 -49
-54 -44 -70 9 -30 11 -31 39 -18 14 7 34 12 44 12 39 0 51 22 57 108 l5 82
-25 0 c-20 0 -26 -5 -27 -22z"/>
<path d="M1516 4639 c-17 -5 -40 -20 -53 -34 -13 -14 -28 -25 -33 -25 -6 0
-10 -4 -10 -9 0 -6 32 -9 70 -9 l70 2 0 37 c0 44 -5 49 -44 38z"/>
<path d="M8093 4610 c-13 -5 -23 -14 -23 -19 0 -5 -7 -17 -16 -25 -17 -17 -11
-56 9 -56 7 0 21 7 31 15 11 8 34 15 52 15 17 0 37 7 45 16 10 13 8 19 -14 40
-28 25 -47 29 -84 14z"/>
<path d="M7754 4547 c-8 -9 3 -21 43 -49 53 -37 73 -45 86 -32 9 9 -11 44 -26
44 -7 0 -25 11 -41 25 -32 27 -45 30 -62 12z"/>
<path d="M0 4420 c0 -99 0 -101 21 -90 54 29 99 78 99 108 0 19 -4 22 -20 17
-13 -4 -20 -2 -20 7 0 12 -58 58 -73 58 -4 0 -7 -45 -7 -100z"/>
<path d="M7269 4444 c-20 -6 -31 -66 -19 -100 9 -22 15 -24 69 -24 33 0 71 7
87 15 16 8 43 15 60 15 17 0 45 5 62 11 26 9 30 14 22 28 -12 23 -238 67 -281
55z"/>
<path d="M500 4340 c0 -15 7 -20 25 -20 27 0 32 9 13 28 -18 18 -38 14 -38 -8z"/>
<path d="M7058 4318 c9 -9 15 -9 24 0 9 9 7 12 -12 12 -19 0 -21 -3 -12 -12z"/>
<path d="M7360 4270 c0 -5 -20 -10 -45 -10 -46 0 -60 -14 -25 -25 24 -8 104 2
144 18 26 9 27 12 10 18 -28 11 -84 10 -84 -1z"/>
<path d="M480 4261 c0 -6 -9 -11 -20 -11 -13 0 -18 -5 -14 -15 9 -23 54 -19
54 4 0 11 -4 23 -10 26 -5 3 -10 1 -10 -4z"/>
<path d="M7020 3311 c0 -6 5 -13 10 -16 6 -3 10 1 10 9 0 9 -4 16 -10 16 -5 0
-10 -4 -10 -9z"/>
<path d="M160 3183 c-41 -21 -76 -43 -77 -49 -6 -18 78 -54 125 -54 23 0 42 4
42 9 0 5 10 11 21 14 16 4 20 10 14 24 -4 10 -9 30 -10 45 -6 59 -17 60 -115
11z"/>
<path d="M8430 2881 c0 -5 14 -11 30 -13 32 -5 41 6 14 16 -23 9 -44 7 -44 -3z"/>
<path d="M8080 2835 c0 -11 7 -15 23 -13 12 2 22 8 22 13 0 6 -10 11 -22 13
-16 2 -23 -2 -23 -13z"/>
<path d="M6338 2783 c6 -2 18 -2 25 0 6 3 1 5 -13 5 -14 0 -19 -2 -12 -5z"/>
<path d="M7331 2724 c-12 -15 -21 -31 -21 -36 0 -6 -14 -23 -31 -39 -33 -31
-31 -49 6 -49 37 0 133 106 121 135 -9 24 -52 18 -75 -11z"/>
<path d="M8155 2670 c-3 -5 1 -10 10 -10 9 0 13 5 10 10 -3 6 -8 10 -10 10 -2
0 -7 -4 -10 -10z"/>
<path d="M8033 2644 c-7 -19 10 -37 36 -39 20 -2 18 19 -5 43 -17 16 -23 15
-31 -4z"/>
<path d="M7870 2592 c6 -13 14 -21 18 -18 3 4 -2 14 -12 24 -18 16 -18 16 -6
-6z"/>
<path d="M7941 2566 c-23 -13 -23 -13 24 -36 38 -18 51 -20 71 -11 46 21 22
61 -35 61 -20 -1 -47 -7 -60 -14z"/>
<path d="M7540 2503 c-27 -10 -50 -36 -50 -56 0 -23 25 -19 97 15 42 20 44 22
27 35 -18 13 -47 16 -74 6z"/>
<path d="M6442 2387 c-9 -11 -10 -17 -2 -22 15 -9 23 -1 18 21 -3 15 -4 16
-16 1z"/>
<path d="M7281 2361 c-12 -8 -13 -14 -3 -35 14 -32 45 -34 67 -4 14 21 14 24
-2 35 -20 15 -42 16 -62 4z"/>
<path d="M6562 2320 c0 -14 2 -19 5 -12 2 6 2 18 0 25 -3 6 -5 1 -5 -13z"/>
<path d="M7195 2294 c-22 -8 -50 -12 -62 -9 -23 5 -53 -3 -53 -15 0 -7 72 -40
88 -40 10 0 82 65 82 74 0 8 -9 7 -55 -10z"/>
<path d="M6918 2200 c-24 -15 -39 -45 -32 -64 8 -20 28 -20 44 -1 7 8 18 15
24 15 8 0 8 -2 0 -8 -6 -4 -15 -23 -19 -42 -4 -19 -13 -42 -19 -52 -8 -14 -7
-21 5 -34 15 -14 19 -14 48 0 17 9 38 28 48 42 9 14 41 37 71 50 64 28 66 50
7 78 -46 22 -152 32 -177 16z"/>
<path d="M6670 2160 c0 -11 5 -20 10 -20 6 0 10 9 10 20 0 11 -4 20 -10 20 -5
0 -10 -9 -10 -20z"/>
<path d="M8385 1994 c10 -8 25 -14 32 -14 17 0 28 -49 14 -63 -22 -22 -12 -37
22 -30 46 8 56 22 30 40 -27 18 -29 38 -6 51 15 9 14 10 -3 20 -10 5 -39 10
-63 9 -40 0 -43 -1 -26 -13z"/>
<path d="M5931 1946 c-9 -11 -9 -16 -1 -21 14 -9 61 15 54 27 -8 13 -40 9 -53
-6z"/>
<path d="M8590 1922 c0 -27 -33 -62 -59 -62 -27 0 -71 -42 -71 -68 0 -18 55
-52 85 -52 8 0 15 -4 15 -10 0 -5 9 -10 19 -10 10 0 21 -7 25 -15 7 -19 36
-20 36 -1 0 7 7 19 16 26 8 8 21 28 29 45 8 21 22 35 39 39 35 9 33 30 -6 55
-18 11 -44 29 -58 40 -14 11 -35 22 -47 26 -18 5 -23 2 -23 -13z"/>
<path d="M7570 1911 c0 -5 7 -14 16 -22 13 -10 17 -10 24 1 6 9 4 17 -3 22
-16 10 -37 10 -37 -1z"/>
<path d="M810 1858 c-23 -35 -30 -57 -20 -63 11 -7 40 22 40 40 0 7 3 20 6 29
9 24 -9 19 -26 -6z"/>
<path d="M7612 1809 c-12 -19 -11 -20 10 -17 12 2 24 11 26 21 5 24 -20 21
-36 -4z"/>
<path d="M8800 1745 c0 -23 30 -65 46 -65 10 0 14 13 14 40 0 38 -2 40 -30 40
-20 0 -30 -5 -30 -15z"/>
<path d="M8640 1642 c0 -31 21 -56 60 -70 20 -8 30 -4 52 17 27 25 36 55 21
64 -5 2 -36 7 -70 11 l-63 7 0 -29z"/>
<path d="M7740 1646 c0 -16 57 -39 72 -30 5 3 2 14 -8 25 -20 22 -64 26 -64 5z"/>
<path d="M8352 1643 c3 -19 53 -42 65 -29 13 13 -13 41 -41 44 -22 3 -27 0
-24 -15z"/>
<path d="M8486 1644 c-21 -20 -16 -38 10 -42 31 -4 51 14 38 35 -15 24 -29 26
-48 7z"/>
<path d="M8846 1621 c-4 -7 -5 -15 -2 -18 9 -9 19 4 14 18 -4 11 -6 11 -12 0z"/>
<path d="M7420 1575 c-10 -11 -5 -20 25 -46 44 -39 35 -53 -32 -51 -53 2 -80
-9 -68 -28 8 -13 59 -9 153 12 42 10 52 17 52 33 0 18 -31 55 -46 55 -3 0 -17
9 -31 20 -31 24 -37 25 -53 5z"/>
<path d="M788 1529 c-10 -5 -18 -15 -18 -20 0 -6 -8 -22 -19 -35 -18 -22 -18
-68 -1 -79 4 -2 24 11 44 30 53 48 72 52 105 21 29 -28 60 -33 79 -14 15 15
-3 48 -28 48 -11 0 -24 9 -30 19 -6 12 -29 23 -60 30 -60 13 -51 13 -72 0z"/>
<path d="M1036 1501 c-4 -5 -2 -12 3 -15 5 -4 12 -2 15 3 4 5 2 12 -3 15 -5 4
-12 2 -15 -3z"/>
<path d="M8675 1440 c10 -11 24 -20 32 -20 7 0 13 -4 13 -10 0 -5 8 -10 18
-10 12 0 8 8 -18 30 -41 35 -74 42 -45 10z"/>
<path d="M8053 1443 c-7 -3 -13 -11 -13 -18 0 -16 31 -29 39 -17 3 5 16 11 28
14 20 5 21 3 13 -12 -25 -47 3 -54 47 -12 l29 27 22 -27 c28 -33 27 -46 -3
-82 -22 -28 -26 -29 -60 -19 -29 9 -37 9 -41 -2 -8 -20 2 -32 33 -40 20 -5 31
-2 40 10 8 12 21 16 40 12 15 -3 45 -8 65 -12 32 -6 43 -3 73 20 34 25 37 26
60 11 27 -18 61 -21 70 -7 6 11 -12 56 -36 89 -10 13 -20 18 -24 12 -3 -5 -22
-10 -41 -10 -28 0 -38 6 -52 30 -15 27 -22 30 -62 31 -25 0 -83 1 -130 3 -47
2 -91 1 -97 -1z"/>
<path d="M962 1394 c5 -25 35 -41 49 -27 18 18 3 43 -26 43 -19 0 -26 -5 -23
-16z"/>
<path d="M620 1350 c0 -5 7 -10 16 -10 8 0 12 5 9 10 -3 6 -10 10 -16 10 -5 0
-9 -4 -9 -10z"/>
<path d="M8775 1340 c-8 -13 13 -40 31 -40 17 0 17 5 4 31 -12 21 -25 25 -35
9z"/>
<path d="M7490 1333 c0 -23 27 -74 42 -79 10 -3 18 -10 18 -15 0 -13 32 -11
51 4 21 16 10 47 -27 76 -25 19 -84 30 -84 14z"/>
<path d="M7294 1293 c-7 -2 -10 -13 -7 -23 4 -15 14 -20 39 -20 28 0 34 4 34
22 0 12 -3 19 -6 15 -3 -3 -16 -2 -28 2 -11 5 -26 6 -32 4z"/>
<path d="M7373 1275 c-3 -9 -3 -18 0 -21 9 -9 27 6 27 22 0 19 -19 18 -27 -1z"/>
<path d="M7580 1155 c7 -8 16 -12 21 -9 13 8 1 24 -18 24 -13 0 -13 -3 -3 -15z"/>
<path d="M1354 1150 c-27 -11 -38 -39 -19 -46 8 -4 15 -11 15 -18 1 -22 58
-68 82 -64 20 3 23 9 26 51 3 40 -1 51 -20 67 -25 21 -50 24 -84 10z"/>
<path d="M952 1121 c-21 -13 -10 -46 16 -49 27 -4 40 22 22 43 -14 17 -20 18
-38 6z"/>
<path d="M7468 1093 c7 -3 16 -2 19 1 4 3 -2 6 -13 5 -11 0 -14 -3 -6 -6z"/>
<path d="M1086 1053 c-3 -4 -25 -9 -48 -12 -50 -7 -82 -43 -51 -59 12 -6 35
-4 71 7 42 12 52 19 52 38 0 23 -13 37 -24 26z"/>
<path d="M1503 1013 c-31 -21 -30 -51 2 -59 50 -13 81 22 50 56 -21 24 -23 24
-52 3z"/>
<path d="M770 906 c0 -15 37 -32 47 -22 3 3 3 12 0 21 -8 19 -47 20 -47 1z"/>
<path d="M1470 894 c0 -10 7 -14 22 -12 32 5 35 28 4 28 -17 0 -26 -5 -26 -16z"/>
<path d="M7710 890 c-12 -7 -12 -12 -2 -22 9 -9 17 -10 30 -2 9 6 16 15 15 20
-3 13 -26 15 -43 4z"/>
<path d="M210 393 c1 -18 18 -35 24 -24 4 6 4 16 1 21 -7 12 -25 13 -25 3z"/>
<path d="M230 339 c0 -22 46 -48 83 -49 33 0 37 3 37 26 0 25 -2 26 -36 21
-19 -3 -46 -2 -60 3 -16 6 -24 6 -24 -1z"/>
<path d="M8212 269 c-38 -14 -26 -53 16 -57 49 -5 63 3 53 29 -10 28 -39 39
-69 28z"/>
<path d="M0 224 c0 -22 2 -25 15 -14 12 10 13 16 4 26 -16 20 -19 18 -19 -12z"/>
<path d="M103 204 c-10 -26 12 -39 43 -25 21 9 24 14 14 26 -16 20 -49 19 -57
-1z"/>
<path d="M8504 210 c-5 -5 -27 -16 -49 -23 -75 -26 -49 -50 37 -34 49 10 85
38 73 56 -8 14 -48 14 -61 1z"/>
</g>
</svg>
